<svg width="107" height="50" viewBox="0 0 107 50" fill="none" xmlns="http://www.w3.org/2000/svg">
<path d="M97 1.5625C95.3312 1.5625 93.6999 2.05735 92.3124 2.98448C90.9248 3.9116 89.8434 5.22936 89.2048 6.77111C88.5662 8.31286 88.3991 10.0094 88.7246 11.6461C89.0502 13.2828 89.8538 14.7862 91.0338 15.9662C92.2138 17.1462 93.7172 17.9498 95.3539 18.2754C96.9906 18.6009 98.6871 18.4338 100.229 17.7952C101.771 17.1566 103.088 16.0752 104.016 14.6876C104.943 13.3001 105.438 11.6688 105.438 10C105.435 7.763 104.545 5.61833 102.963 4.03653C101.382 2.45473 99.237 1.56498 97 1.5625ZM97 16.5625C95.7021 16.5625 94.4333 16.1776 93.3541 15.4565C92.2749 14.7354 91.4337 13.7105 90.937 12.5114C90.4403 11.3122 90.3104 9.99272 90.5636 8.71972C90.8168 7.44672 91.4418 6.27739 92.3596 5.35961C93.2774 4.44183 94.4467 3.81681 95.7197 3.5636C96.9927 3.31038 98.3122 3.44034 99.5114 3.93704C100.711 4.43374 101.735 5.27487 102.457 6.35407C103.178 7.43327 103.563 8.70206 103.563 10C103.561 11.7399 102.869 13.408 101.638 14.6383C100.408 15.8686 98.7399 16.5606 97 16.5625ZM100.788 10.5867C100.964 10.7628 101.063 11.0017 101.063 11.2508C101.063 11.4999 100.964 11.7387 100.788 11.9148C100.612 12.091 100.373 12.1899 100.124 12.1899C99.8752 12.1899 99.6363 12.091 99.4602 11.9148L97 9.45312L94.5383 11.9133C94.3622 12.0894 94.1233 12.1883 93.8742 12.1883C93.6252 12.1883 93.3863 12.0894 93.2102 11.9133C93.034 11.7372 92.9351 11.4983 92.9351 11.2492C92.9351 11.0001 93.034 10.7613 93.2102 10.5852L96.3352 7.46016C96.4223 7.37276 96.5258 7.30341 96.6397 7.25609C96.7537 7.20877 96.8758 7.18442 96.9992 7.18442C97.1226 7.18442 97.2448 7.20877 97.3587 7.25609C97.4727 7.30341 97.5762 7.37276 97.6633 7.46016L100.788 10.5867Z" fill="#98A2B3"/>
<path d="M97 31.5625C95.3312 31.5625 93.6999 32.0574 92.3124 32.9845C90.9248 33.9116 89.8434 35.2294 89.2048 36.7711C88.5662 38.3129 88.3991 40.0094 88.7246 41.6461C89.0502 43.2828 89.8538 44.7862 91.0338 45.9662C92.2138 47.1462 93.7172 47.9498 95.3539 48.2754C96.9906 48.6009 98.6871 48.4338 100.229 47.7952C101.771 47.1566 103.088 46.0752 104.016 44.6876C104.943 43.3001 105.438 41.6688 105.438 40C105.435 37.763 104.545 35.6183 102.963 34.0365C101.382 32.4547 99.237 31.565 97 31.5625ZM97 46.5625C95.7021 46.5625 94.4333 46.1776 93.3541 45.4565C92.2749 44.7354 91.4337 43.7105 90.937 42.5114C90.4403 41.3122 90.3104 39.9927 90.5636 38.7197C90.8168 37.4467 91.4418 36.2774 92.3596 35.3596C93.2774 34.4418 94.4467 33.8168 95.7197 33.5636C96.9927 33.3104 98.3122 33.4403 99.5114 33.937C100.711 34.4337 101.735 35.2749 102.457 36.3541C103.178 37.4333 103.563 38.7021 103.563 40C103.561 41.7399 102.869 43.408 101.638 44.6383C100.408 45.8686 98.7399 46.5606 97 46.5625ZM100.788 38.0867C100.876 38.1738 100.945 38.2773 100.992 38.3913C101.04 38.5052 101.064 38.6274 101.064 38.7508C101.064 38.8742 101.04 38.9963 100.992 39.1103C100.945 39.2243 100.876 39.3277 100.788 39.4148L97.6633 42.5398C97.5762 42.6272 97.4727 42.6966 97.3587 42.7439C97.2448 42.7912 97.1226 42.8156 96.9992 42.8156C96.8758 42.8156 96.7537 42.7912 96.6397 42.7439C96.5258 42.6966 96.4223 42.6272 96.3352 42.5398L93.2102 39.4148C93.034 39.2387 92.9351 38.9999 92.9351 38.7508C92.9351 38.5017 93.034 38.2628 93.2102 38.0867C93.3863 37.9106 93.6252 37.8117 93.8742 37.8117C94.1233 37.8117 94.3622 37.9106 94.5383 38.0867L97 40.5469L99.4617 38.0844C99.5489 37.9974 99.6525 37.9284 99.7664 37.8814C99.8803 37.8344 100.002 37.8104 100.125 37.8106C100.249 37.8108 100.371 37.8353 100.484 37.8827C100.598 37.9301 100.701 37.9994 100.788 38.0867Z" fill="#98A2B3"/>
<rect y="10" width="75" height="30" rx="4" fill="#0A369D"/>
<path d="M11.624 20.66C12.512 20.66 13.288 20.832 13.952 21.176C14.624 21.512 15.14 22 15.5 22.64C15.868 23.272 16.052 24.012 16.052 24.86C16.052 25.708 15.868 26.444 15.5 27.068C15.14 27.692 14.624 28.172 13.952 28.508C13.288 28.836 12.512 29 11.624 29H8.9V20.66H11.624ZM11.624 27.884C12.6 27.884 13.348 27.62 13.868 27.092C14.388 26.564 14.648 25.82 14.648 24.86C14.648 23.892 14.388 23.136 13.868 22.592C13.348 22.048 12.6 21.776 11.624 21.776H10.268V27.884H11.624ZM16.4718 25.664C16.4718 25 16.6078 24.412 16.8798 23.9C17.1598 23.388 17.5358 22.992 18.0078 22.712C18.4878 22.424 19.0158 22.28 19.5918 22.28C20.1118 22.28 20.5638 22.384 20.9478 22.592C21.3398 22.792 21.6518 23.044 21.8838 23.348V22.388H23.2638V29H21.8838V28.016C21.6518 28.328 21.3358 28.588 20.9358 28.796C20.5358 29.004 20.0798 29.108 19.5678 29.108C18.9998 29.108 18.4798 28.964 18.0078 28.676C17.5358 28.38 17.1598 27.972 16.8798 27.452C16.6078 26.924 16.4718 26.328 16.4718 25.664ZM21.8838 25.688C21.8838 25.232 21.7878 24.836 21.5958 24.5C21.4118 24.164 21.1678 23.908 20.8638 23.732C20.5598 23.556 20.2318 23.468 19.8798 23.468C19.5278 23.468 19.1998 23.556 18.8958 23.732C18.5918 23.9 18.3438 24.152 18.1518 24.488C17.9678 24.816 17.8758 25.208 17.8758 25.664C17.8758 26.12 17.9678 26.52 18.1518 26.864C18.3438 27.208 18.5918 27.472 18.8958 27.656C19.2078 27.832 19.5358 27.92 19.8798 27.92C20.2318 27.92 20.5598 27.832 20.8638 27.656C21.1678 27.48 21.4118 27.224 21.5958 26.888C21.7878 26.544 21.8838 26.144 21.8838 25.688ZM30.5326 22.388L26.4766 32.108H25.0606L26.4046 28.892L23.8006 22.388H25.3246L27.1846 27.428L29.1166 22.388H30.5326ZM33.3622 21.5V20.252H35.8582V29H34.4782V21.5H33.3622ZM45.1507 24.08V25.232H40.2187V24.08H45.1507ZM52.2754 31.232C51.4914 30.48 50.8874 29.524 50.4634 28.364C50.0474 27.204 49.8394 25.96 49.8394 24.632C49.8394 23.272 50.0634 21.988 50.5114 20.78C50.9674 19.572 51.6354 18.576 52.5154 17.792H53.9314V17.924C53.0114 18.772 52.3194 19.788 51.8554 20.972C51.3914 22.156 51.1594 23.376 51.1594 24.632C51.1594 25.84 51.3754 27.008 51.8074 28.136C52.2394 29.264 52.8674 30.252 53.6914 31.1V31.232H52.2754ZM55.2537 27.14C56.0217 26.476 56.6257 25.932 57.0657 25.508C57.5137 25.076 57.8857 24.628 58.1817 24.164C58.4777 23.7 58.6257 23.236 58.6257 22.772C58.6257 22.292 58.5097 21.916 58.2777 21.644C58.0537 21.372 57.6977 21.236 57.2097 21.236C56.7377 21.236 56.3697 21.388 56.1057 21.692C55.8497 21.988 55.7137 22.388 55.6977 22.892H54.3777C54.4017 21.98 54.6737 21.284 55.1937 20.804C55.7217 20.316 56.3897 20.072 57.1977 20.072C58.0697 20.072 58.7497 20.312 59.2377 20.792C59.7337 21.272 59.9817 21.912 59.9817 22.712C59.9817 23.288 59.8337 23.844 59.5377 24.38C59.2497 24.908 58.9017 25.384 58.4937 25.808C58.0937 26.224 57.5817 26.708 56.9577 27.26L56.4177 27.74H60.2217V28.88H54.3897V27.884L55.2537 27.14ZM60.7874 31.232V31.1C61.6114 30.252 62.2394 29.264 62.6714 28.136C63.1034 27.008 63.3194 25.84 63.3194 24.632C63.3194 23.376 63.0874 22.156 62.6234 20.972C62.1594 19.788 61.4674 18.772 60.5474 17.924V17.792H61.9634C62.8434 18.576 63.5074 19.572 63.9554 20.78C64.4114 21.988 64.6394 23.272 64.6394 24.632C64.6394 25.96 64.4274 27.204 64.0034 28.364C63.5874 29.524 62.9874 30.48 62.2034 31.232H60.7874Z" fill="white"/>
</svg>
